<svg width="165" height="44" viewBox="0 0 165 44" fill="none" xmlns="http://www.w3.org/2000/svg">
    <path d="M21.766 28.9522C25.1991 28.9522 27.982 26.1253 27.982 22.6391C27.982 19.1496 25.1991 16.3221 21.766 16.3221C18.3357 16.3221 15.5521 19.1496 15.5521 22.6391C15.5521 26.1255 18.3357 28.9522 21.766 28.9522ZM11.9539 20.7294C11.9539 19.6201 11.0675 18.7207 9.97597 18.7207C8.88567 18.7207 8 19.6201 8 20.7294C8 21.8395 8.88567 22.7395 9.97597 22.7395C11.0675 22.7397 11.9539 21.8395 11.9539 20.7294ZM11.0486 25.8711C10.0886 25.8711 9.30931 26.6638 9.30931 27.6398C9.30931 28.615 10.0884 29.4083 11.0486 29.4083C12.0091 29.4083 12.7887 28.615 12.7887 27.6398C12.7889 26.6638 12.0092 25.8711 11.0486 25.8711ZM19.7623 12.8199C21.0722 12.8199 22.1339 11.7417 22.1339 10.4102C22.1339 9.07893 21.0722 8 19.7623 8C18.4534 8 17.3907 9.07893 17.3907 10.4102C17.3907 11.7417 18.4532 12.8199 19.7623 12.8199ZM21.5479 33.2698C20.8053 33.2698 20.2036 33.881 20.2036 34.6319C20.2036 35.3903 20.8053 36 21.5479 36C22.2907 36 22.8932 35.3903 22.8932 34.6319C22.8932 33.881 22.2907 33.2698 21.5479 33.2698ZM27.0514 32.922C26.5272 32.922 26.1019 33.3533 26.1019 33.8836C26.1019 34.418 26.5272 34.8499 27.0514 34.8499C27.5749 34.8499 28 34.4182 28 33.8836C28 33.3533 27.5749 32.922 27.0514 32.922ZM15.672 30.8002C14.7108 30.8002 13.9312 31.5896 13.9312 32.5665C13.9312 33.5449 14.7108 34.3337 15.672 34.3337C16.6311 34.3337 17.4111 33.5449 17.4111 32.5665C17.4111 31.5896 16.6313 30.8002 15.672 30.8002ZM14.9651 13.9842C14.9651 12.8302 14.0441 11.8946 12.9091 11.8946C11.7733 11.8946 10.8524 12.8302 10.8524 13.9842C10.8524 15.1373 11.7733 16.0727 12.9091 16.0727C14.044 16.0729 14.9651 15.1373 14.9651 13.9842Z" fill="#EAB308"/>
    <path d="M155.078 14.2897V14.2815C155.306 14.2183 155.491 14.0633 155.491 13.8322C155.491 13.6923 155.426 13.5721 155.32 13.4958C155.182 13.3961 154.984 13.3487 154.683 13.3487C154.491 13.3487 154.282 13.3641 154.138 13.3884V15.134H154.422V14.3658H154.689C154.946 14.3747 155.067 14.4664 155.131 14.7106C155.189 14.9314 155.239 15.0836 155.275 15.134H155.567C155.525 15.0652 155.473 14.895 155.4 14.6473C155.345 14.4629 155.244 14.3364 155.078 14.2897ZM154.711 14.1926H154.422V13.5481C154.47 13.5378 154.565 13.5266 154.701 13.5266C155 13.5266 155.206 13.6267 155.206 13.8557C155.206 14.0586 155.014 14.1926 154.711 14.1926ZM154.852 12.5499C153.913 12.5499 153.149 13.3142 153.149 14.254C153.149 15.1908 153.913 15.9555 154.852 15.9555C155.791 15.9555 156.555 15.1908 156.555 14.254C156.555 13.3144 155.791 12.5499 154.852 12.5499ZM154.852 15.695C154.057 15.695 153.41 15.0474 153.41 14.2533C153.41 13.4577 154.057 12.8104 154.852 12.8104C155.647 12.8104 156.294 13.4575 156.294 14.2533C156.294 15.0474 155.647 15.695 154.852 15.695Z" fill="#EAB308"/>
    <path d="M56.6377 29.6487C56.4923 29.0815 56.4194 28.5378 56.4194 28.0172V26.6488C56.4194 25.5319 56.1699 24.5944 55.671 23.8353C55.1724 23.0764 54.3535 22.535 53.2151 22.2106C54.221 21.7843 54.985 21.2245 55.5058 20.5333C56.0266 19.8424 56.2868 19.0141 56.2868 18.0501C56.2868 16.3178 55.6666 14.9676 54.4266 13.9991C53.1864 13.0308 51.4671 12.5462 49.2691 12.5462H42V31.1772H45.8664V23.7248H49.5471C50.5003 23.7248 51.24 23.9826 51.7648 24.4991C52.29 25.0157 52.5528 25.7392 52.5528 26.6699V27.9883C52.5528 28.5607 52.6058 29.1664 52.7113 29.807C52.8171 30.4475 53.0465 30.9041 53.4002 31.177H57.3858V30.9085C57.0329 30.6359 56.7834 30.2159 56.6377 29.6487ZM51.6329 20.1925C51.0985 20.6389 50.289 20.8613 49.2033 20.8613H45.8664V15.4099H49.2689C50.3105 15.4099 51.0985 15.663 51.6329 16.1684C52.1665 16.674 52.4338 17.3551 52.4338 18.2125C52.4338 19.0867 52.1665 19.7469 51.6329 20.1925ZM70.4668 27.6514V21.9416C70.4668 20.3919 69.9324 19.1974 68.8647 18.3587C67.7963 17.5197 66.406 17.1 64.6937 17.1C62.8841 17.1 61.4233 17.523 60.311 18.368C59.1985 19.2137 58.6735 20.2189 58.7353 21.3823L58.7491 21.458L62.4829 21.471C62.4829 20.9573 62.6526 20.5534 62.9927 20.2628C63.3326 19.9712 63.816 19.826 64.4428 19.826C65.1491 19.826 65.6828 20.0079 66.0448 20.372C66.4067 20.7362 66.5878 21.2483 66.5878 21.9085V23H64.4292C62.3547 23 60.7769 23.3738 59.6954 24.121C58.6139 24.8682 58.0733 25.9203 58.0733 27.2779C58.0733 28.5674 58.4792 29.5852 59.2911 30.3322C60.103 31.0794 61.2599 31.4534 62.7604 31.4534C63.6608 31.4534 64.4348 31.23 65.084 30.7846C65.733 30.3387 66.2561 29.779 66.6534 29.1062C66.6975 29.4729 66.7703 29.8305 66.8717 30.18C66.973 30.529 67.095 30.8621 67.2363 31.1775H71.1026C70.8816 30.6156 70.7203 30.0488 70.6192 29.4788C70.5177 28.9083 70.4668 28.299 70.4668 27.6514ZM66.5876 27.0723C66.402 27.5018 66.0441 27.879 65.5147 28.2044C64.9846 28.5301 64.38 28.6933 63.7007 28.6933C63.1528 28.6933 62.7207 28.5523 62.4033 28.2686C62.0851 27.9855 61.9266 27.6125 61.9266 27.1498C61.9266 26.5844 62.1386 26.1019 62.5622 25.7037C62.9859 25.3043 63.608 25.1051 64.4292 25.1051H66.5878L66.5876 27.0723ZM107.3 17.1002C105.331 17.0918 103.762 17.7522 102.592 19.0816C101.423 20.411 100.838 22.1018 100.838 24.1551V24.6663C100.838 26.6351 101.456 28.2586 102.692 29.5357C103.928 30.814 105.578 31.4532 107.644 31.4532C108.8 31.4532 109.851 31.3014 110.795 30.9994C111.74 30.6964 112.504 30.3154 113.087 29.8553L112.04 27.5541C111.369 27.912 110.751 28.1743 110.186 28.3403C109.622 28.5065 108.911 28.5891 108.055 28.5891C107.093 28.5891 106.332 28.2957 105.771 27.7075C105.21 27.1194 104.894 26.3694 104.824 25.4569L104.85 25.3808H113.404V23.349C113.404 21.4325 112.87 19.9115 111.802 18.7873C110.734 17.6628 109.234 17.1002 107.3 17.1002ZM109.617 22.8969H104.877L104.837 22.8329C104.934 21.975 105.19 21.2822 105.605 20.7551C106.02 20.228 106.585 19.964 107.3 19.964C108.077 19.964 108.657 20.2002 109.041 20.6718C109.425 21.144 109.617 21.7747 109.617 22.5651V22.8969ZM118.854 12.5464H114.987V31.1775H127.433V28.3132H118.854V12.5464ZM155.123 19.0881C154.169 17.7627 152.783 17.1 150.965 17.1C150.214 17.1 149.55 17.2496 148.972 17.5477C148.393 17.8463 147.897 18.2723 147.483 18.8262V12.548H143.629V31.1772H146.94L147.231 29.4634C147.663 30.1114 148.191 30.6049 148.813 30.944C149.435 31.2834 150.161 31.4534 150.991 31.4534C152.792 31.4534 154.169 30.8357 155.122 29.5999C156.075 28.3646 156.553 26.7165 156.553 24.6539V24.3859C156.553 22.1783 156.076 20.4131 155.123 19.0881ZM152.699 24.6577C152.699 25.9124 152.5 26.8811 152.104 27.5644C151.706 28.2483 151.009 28.5894 150.011 28.5894C149.402 28.5894 148.888 28.4778 148.469 28.2539C148.049 28.031 147.721 27.7084 147.483 27.2868V21.3823C147.721 20.9269 148.047 20.5761 148.462 20.3317C148.877 20.087 149.384 19.9638 149.985 19.9638C150.973 19.9638 151.672 20.3622 152.083 21.1568C152.493 21.9522 152.699 23.0287 152.699 24.3859V24.6577H152.699ZM141.41 27.6514V21.9416C141.41 20.3919 140.876 19.1974 139.808 18.3587C138.74 17.5197 137.35 17.1 135.637 17.1C133.828 17.1 132.367 17.523 131.255 18.368C130.142 19.2137 129.617 20.2189 129.679 21.3823L129.692 21.458L133.426 21.471C133.426 20.9573 133.596 20.5534 133.936 20.2628C134.276 19.9712 134.76 19.826 135.387 19.826C136.092 19.826 136.627 20.0079 136.989 20.372C137.35 20.7362 137.532 21.2483 137.532 21.9085V23H135.373C133.299 23 131.721 23.3738 130.639 24.121C129.558 24.8682 129.017 25.9203 129.017 27.2779C129.017 28.5674 129.423 29.5852 130.235 30.3322C131.047 31.0794 132.204 31.4534 133.704 31.4534C134.605 31.4534 135.379 31.23 136.028 30.7846C136.677 30.3387 137.2 29.779 137.597 29.1062C137.641 29.4729 137.715 29.8305 137.816 30.18C137.917 30.529 138.039 30.8621 138.18 31.1775H142.047C141.826 30.6156 141.664 30.0488 141.563 29.4788C141.461 28.9083 141.41 28.299 141.41 27.6514ZM137.531 27.0723C137.346 27.5018 136.988 27.879 136.458 28.2044C135.928 28.5301 135.324 28.6933 134.644 28.6933C134.097 28.6933 133.664 28.5523 133.347 28.2686C133.029 27.9855 132.87 27.6125 132.87 27.1498C132.87 26.5844 133.082 26.1019 133.506 25.7037C133.929 25.3043 134.552 25.1051 135.373 25.1051H137.531V27.0723ZM91.2508 21.1162C91.6702 20.3482 92.3915 19.9638 93.4156 19.9638C94.1306 19.9638 94.6906 20.2021 95.097 20.6778C95.5032 21.1533 95.7063 21.7512 95.7063 22.4706H99.2291L99.2554 22.3945C99.2902 20.8088 98.7678 19.5303 97.6863 18.5583C96.6046 17.5867 95.1808 17.1002 93.4159 17.1002C91.2792 17.1002 89.6354 17.7564 88.4834 19.069C87.3314 20.3807 86.7555 22.0551 86.7555 24.0916V24.4749C86.7555 26.5202 87.3335 28.1951 88.4897 29.4984C89.6461 30.8014 91.2925 31.4538 93.4292 31.4538C95.0973 31.4538 96.4944 30.9825 97.62 30.0404C98.7456 29.0985 99.2904 27.9288 99.2557 26.5307L99.216 26.4542H95.7065C95.7065 27.1019 95.4992 27.6199 95.084 28.0084C94.6687 28.3963 94.1176 28.5896 93.4292 28.5896C92.3962 28.5896 91.6705 28.2124 91.251 27.457C90.8317 26.7023 90.6219 25.706 90.6219 24.469V24.0853C90.6219 22.873 90.8315 21.8838 91.2508 21.1162ZM80.5642 17.1002C79.6988 17.1002 78.9175 17.2944 78.22 17.6815C77.5225 18.069 76.9359 18.6171 76.4595 19.3244L76.287 17.3421H72.6853V31.1775H76.5517V21.1172C76.8255 20.75 77.1649 20.4663 77.5715 20.2656C77.9777 20.0648 78.4364 19.964 78.9486 19.964C79.7341 19.964 80.3209 20.1587 80.7096 20.5478C81.0978 20.9362 81.2925 21.5959 81.2925 22.5271V31.1775H85.1721V22.5423C85.1721 20.6687 84.7655 19.2933 83.9536 18.4163C83.1417 17.5388 82.0117 17.1002 80.5642 17.1002Z" fill="#EAB308"/>
</svg>
